# xmcd
#
# Track frame offsets: 
#        150
#        20451
#        41002
#        65229
#        81491
#        97157
#        114778
#        145476
#        169743
#        209839
#        229122
#        251227
#        268844
#        294253
#
# Disc length: 4352 seconds
#
# Revision: 1
# Processed by: cddbd v1.5.2PL0 Copyright (c) Steve Scherf et al.
# Submitted via: ExactAudioCopy v1.0b3
#
DISCID=dc10fe0e
DTITLE=Various Artist - Time Blues  Vol.12
DYEAR=2003
DGENRE=Blues
TTITLE0=J.P. Stingray - Lonesome Road
TTITLE1=Brain Stoltz - Down
TTITLE2=Jeannie and Jimmy Cheatham - What Do We Do For Fun?
TTITLE3=Tim Turner - Please Come Home
TTITLE4=Sunset Travelers - Let It Happet
TTITLE5=Nick Curran and The Nitelifes - Lonesome Whistle Blues
TTITLE6=Canned Heat - Never Get Out Of These Blues Active
TTITLE7=Wolf Mail - Hello
TTITLE8=The Shadows - Big Leg Woman
TTITLE9=Lisa Otey - At Last
TTITLE10=Maynard Brothers Band - Waitin' On A Bone 
TTITLE11=Sonny Phodes - Back Where You Come From 
TTITLE12=Ronnie Earl and The Broadcasters - Indigo Burrell 
TTITLE13=Fernando Noronha and Black Soul - Ain't That A Shame?
EXTD=
EXTT0=
EXTT1=
EXTT2=
EXTT3=
EXTT4=
EXTT5=
EXTT6=
EXTT7=
EXTT8=
EXTT9=
EXTT10=
EXTT11=
EXTT12=
EXTT13=
PLAYORDER=
